<svg xmlns="http://www.w3.org/2000/svg" viewBox="239.68 173.13 64.76 84.65"><g id="freepik--attached-files--inject-2"><path d="M256.56,208.78a9.18,9.18,0,0,1-9.16-9.17V181.85a1,1,0,0,1,1.94,0v17.76a7.23,7.23,0,1,0,14.45,0V180.93a1,1,0,1,1,1.94,0v18.68A9.18,9.18,0,0,1,256.56,208.78Z" style="fill:#263238"/><rect x="246.23" y="180.1" width="52.88" height="73.28" rx="4.35" transform="translate(-30.2 44.71) rotate(-8.88)" style="fill:#77D5E1"/><rect x="246.23" y="180.1" width="52.88" height="73.28" rx="4.35" transform="translate(-30.2 44.71) rotate(-8.88)" style="fill:#fff;opacity:0.6000000000000001"/><rect x="254.4" y="214.08" width="37.45" height="2.32" rx="1" transform="matrix(0.99, -0.16, 0.16, 0.99, -30.78, 46.22)" style="opacity:0.2"/><rect x="255.9" y="223.44" width="37.45" height="2.32" rx="1" transform="translate(-32.25 46.58) rotate(-9.16)" style="opacity:0.2"/><rect x="257.41" y="232.81" width="37.45" height="2.32" rx="1" transform="translate(-33.72 46.94) rotate(-9.16)" style="opacity:0.2"/><rect x="243.73" y="181.68" width="52.88" height="73.28" rx="4.35" transform="translate(-23.29 32.47) rotate(-6.59)" style="fill:#77D5E1"/><rect x="243.73" y="181.68" width="52.88" height="73.28" rx="4.35" transform="translate(-23.29 32.47) rotate(-6.59)" style="fill:#fff;opacity:0.7000000000000001"/><rect x="251.96" y="215.68" width="37.45" height="2.32" rx="1" transform="translate(-23.99 33.94) rotate(-6.87)" style="opacity:0.2"/><rect x="253.09" y="225.1" width="37.45" height="2.32" rx="1" transform="translate(-25.11 34.14) rotate(-6.87)" style="opacity:0.2"/><rect x="254.23" y="234.51" width="37.45" height="2.32" rx="1" transform="translate(-26.23 34.34) rotate(-6.87)" style="opacity:0.2"/><path d="M296.53,199.29l.1,54.31a1.27,1.27,0,0,1-1.27,1.27l-50.22.09a1.26,1.26,0,0,1-1.27-1.26l-.12-70.65a1.26,1.26,0,0,1,1.26-1.27l33.84-.06Z" style="fill:#77D5E1"/><g style="opacity:0.8"><path d="M296.53,199.29l.1,54.31a1.27,1.27,0,0,1-1.27,1.27l-50.22.09a1.26,1.26,0,0,1-1.27-1.26l-.12-70.65a1.26,1.26,0,0,1,1.26-1.27l33.84-.06Z" style="fill:#fff"/></g><rect x="251.45" y="215.75" width="37.45" height="2.32" rx="1" transform="translate(-1.04 1.3) rotate(-0.28)" style="fill:#263238"/><rect x="251.49" y="225.23" width="37.45" height="2.32" rx="1" transform="translate(-1.08 1.3) rotate(-0.27)" style="fill:#263238"/><rect x="251.54" y="234.72" width="37.45" height="2.32" rx="1" transform="translate(-1.13 1.3) rotate(-0.28)" style="fill:#263238"/><path d="M278.88,181.68l0,16.38a1.27,1.27,0,0,0,1.26,1.27l16.34,0Z" style="fill:#77D5E1"/><path d="M278.88,181.68l0,16.38a1.27,1.27,0,0,0,1.26,1.27l16.34,0Z" style="fill:#fff;opacity:0.9"/><rect x="251.45" y="215.75" width="37.45" height="2.32" rx="1" transform="translate(-1.04 1.3) rotate(-0.28)" style="fill:#fff;opacity:0.5"/><rect x="251.49" y="225.23" width="37.45" height="2.32" rx="1" transform="translate(-1.08 1.3) rotate(-0.27)" style="fill:#fff;opacity:0.5"/><rect x="251.54" y="234.72" width="37.45" height="2.32" rx="1" transform="translate(-1.13 1.3) rotate(-0.28)" style="fill:#fff;opacity:0.5"/><path d="M260.67,182.84h-1.94v-3.33a4.7,4.7,0,0,0-9.39,0v2.36H247.4v-2.36a6.64,6.64,0,0,1,13.27,0Z" style="fill:#263238"/><path d="M256.51,200.47a4.16,4.16,0,0,1-4.15-4.16V181a1,1,0,1,1,1.94,0v15.36a2.22,2.22,0,1,0,4.43,0V181.87a1,1,0,1,1,1.94,0v14.44A4.16,4.16,0,0,1,256.51,200.47Z" style="fill:#263238"/></g></svg>