<svg xmlns="http://www.w3.org/2000/svg" viewBox="138.22 357.55 226.37 92.65"><g id="freepik--gears-1--inject-2"><g id="freepik--Gear--inject-2"><path d="M251.31,403.82h0l4.44,8.43h0a.91.91,0,0,0,.72.44l6.13.88a2.45,2.45,0,0,1-.88,1.06l-12.53,7.6a1.47,1.47,0,0,0-.54,1.92l3.78,7.23s0,0,0,0l4.41,8.39a1.48,1.48,0,0,0,1.89.66l13.39-5.95a2.31,2.31,0,0,1,1.34-.12l-2.79,5.55a.9.9,0,0,0-.05.85h0l4.45,8.45h0a.92.92,0,0,0,.79.41l12.66.53a3,3,0,0,0,2.2-1l7.48-9.72a4,4,0,0,1,2.18-1.31,68.31,68.31,0,0,0,8.61-2.18,2.08,2.08,0,0,1,2.15.64l4.62,5.85a1.73,1.73,0,0,0,2.07.44l14.3-7.48a1.71,1.71,0,0,0,.82-1.94l-2.17-7.14a2.11,2.11,0,0,1,.71-2.13,66.27,66.27,0,0,0,6.7-5.82,4.09,4.09,0,0,1,2.33-1.05l12.24-.58a2.94,2.94,0,0,0,2.1-1.22l6.8-10.7a.89.89,0,0,0,.1-.9h0l-4.44-8.43h0a.94.94,0,0,0-.73-.44l-6.12-.88a2.45,2.45,0,0,1,.88-1.06l12.53-7.6a1.47,1.47,0,0,0,.54-1.92l-5.32-10.13h0l-2.88-5.51a1.49,1.49,0,0,0-1.89-.66l-13.39,6a2.39,2.39,0,0,1-1.34.11l2.79-5.55a.92.92,0,0,0,.05-.86h0L338,358.51h0a.87.87,0,0,0-.8-.42l-12.66-.54a3,3,0,0,0-2.21,1l-7.47,9.72a4.12,4.12,0,0,1-2.18,1.32,65,65,0,0,0-8.61,2.18,2.12,2.12,0,0,1-2.15-.64l-4.63-5.86a1.72,1.72,0,0,0-2.06-.44L281,372.34a1.71,1.71,0,0,0-.82,1.94l2.16,7.14a2.1,2.1,0,0,1-.7,2.13,66.43,66.43,0,0,0-6.7,5.82,4.09,4.09,0,0,1-2.33,1.05l-12.24.58a3,3,0,0,0-2.11,1.22l-6.79,10.7A.91.91,0,0,0,251.31,403.82Zm74.41-3.26c-6.34,10-21.05,17.67-32.86,17.17-4.62-.19-8.11-1.62-10.27-3.87-.15-2.67.91-5.92,3.24-9.58,6.34-10,21.05-17.68,32.86-17.18,4.62.2,7.9,1.39,9.81,3.35C328.92,393.4,328.06,396.88,325.72,400.56Z" style="fill:#77D5E1"/><path d="M251.31,403.82h0l4.44,8.43h0a.91.91,0,0,0,.72.44l6.13.88a2.45,2.45,0,0,1-.88,1.06l-12.53,7.6a1.47,1.47,0,0,0-.54,1.92l3.78,7.23s0,0,0,0l4.41,8.39a1.48,1.48,0,0,0,1.89.66l13.39-5.95a2.31,2.31,0,0,1,1.34-.12l-2.79,5.55a.9.9,0,0,0-.05.85h0l4.45,8.45h0a.92.92,0,0,0,.79.41l12.66.53a3,3,0,0,0,2.2-1l7.48-9.72a4,4,0,0,1,2.18-1.31,68.31,68.31,0,0,0,8.61-2.18,2.08,2.08,0,0,1,2.15.64l4.62,5.85a1.73,1.73,0,0,0,2.07.44l14.3-7.48a1.71,1.71,0,0,0,.82-1.94l-2.17-7.14a2.11,2.11,0,0,1,.71-2.13,66.27,66.27,0,0,0,6.7-5.82,4.09,4.09,0,0,1,2.33-1.05l12.24-.58a2.94,2.94,0,0,0,2.1-1.22l6.8-10.7a.89.89,0,0,0,.1-.9h0l-4.44-8.43h0a.94.94,0,0,0-.73-.44l-6.12-.88a2.45,2.45,0,0,1,.88-1.06l12.53-7.6a1.47,1.47,0,0,0,.54-1.92l-5.32-10.13h0l-2.88-5.51a1.49,1.49,0,0,0-1.89-.66l-13.39,6a2.39,2.39,0,0,1-1.34.11l2.79-5.55a.92.92,0,0,0,.05-.86h0L338,358.51h0a.87.87,0,0,0-.8-.42l-12.66-.54a3,3,0,0,0-2.21,1l-7.47,9.72a4.12,4.12,0,0,1-2.18,1.32,65,65,0,0,0-8.61,2.18,2.12,2.12,0,0,1-2.15-.64l-4.63-5.86a1.72,1.72,0,0,0-2.06-.44L281,372.34a1.71,1.71,0,0,0-.82,1.94l2.16,7.14a2.1,2.1,0,0,1-.7,2.13,66.43,66.43,0,0,0-6.7,5.82,4.09,4.09,0,0,1-2.33,1.05l-12.24.58a3,3,0,0,0-2.11,1.22l-6.79,10.7A.91.91,0,0,0,251.31,403.82Zm74.41-3.26c-6.34,10-21.05,17.67-32.86,17.17-4.62-.19-8.11-1.62-10.27-3.87-.15-2.67.91-5.92,3.24-9.58,6.34-10,21.05-17.68,32.86-17.18,4.62.2,7.9,1.39,9.81,3.35C328.92,393.4,328.06,396.88,325.72,400.56Z" style="fill:#fff;opacity:0.2"/><path d="M345,392a1.16,1.16,0,0,0,1,1.51l4.46.64a2.42,2.42,0,0,1,.9-1.06l12.53-7.6a1.48,1.48,0,0,0,.54-1.93l-5.32-10.12.89,1.71a1.48,1.48,0,0,1-.53,1.92l-12.54,7.59a2.74,2.74,0,0,0-1.14,2.09A22.19,22.19,0,0,1,345,392Zm-7-33.41a1.08,1.08,0,0,1-.09.77l-4.81,9.57a1.15,1.15,0,0,0,.68,1.66A22,22,0,0,1,338.6,373a2.71,2.71,0,0,0,1,.37l2.79-5.56a.9.9,0,0,0,.05-.85h0Z" style="opacity:0.1"/><path d="M282.94,398.76c6.34-10,21.05-17.68,32.86-17.18,7.47.31,12,3.82,12.71,8.88-1.9-2-5.19-3.16-9.82-3.36-11.82-.5-26.52,7.2-32.86,17.18-2.32,3.65-3.4,6.9-3.25,9.58C279.21,410.36,279.09,404.83,282.94,398.76Z" style="opacity:0.1"/><path d="M256.86,439.81a1.46,1.46,0,0,0,1.88.64l13.4-5.94a1.9,1.9,0,0,1,.73-.15l-4.43-8.44a1.83,1.83,0,0,0-.74.17l-13.39,6a1.48,1.48,0,0,1-1.78-.5Zm-1.11-27.55h0a1,1,0,0,0,.73.45l6.13.87a2.77,2.77,0,0,0,.25-1,21.52,21.52,0,0,1,.71-5,1,1,0,0,1,.05-.24,1.48,1.48,0,0,0,0-.59c0-.06,0-.12,0-.18a1.26,1.26,0,0,0-.18-.32,1.16,1.16,0,0,0-.5-.35.71.71,0,0,0-.27-.07L252,404.27a1,1,0,0,1-.25-.06.56.56,0,0,1-.29-.17.5.5,0,0,1-.18-.23h0Zm19.33,37a.87.87,0,0,0,.79.4l12.66.54a2.9,2.9,0,0,0,1.64-.53l-4.42-8.42a2.88,2.88,0,0,1-1.64.53l-12.67-.53a1,1,0,0,1-.77-.36Zm64.36-31.65a3.52,3.52,0,0,1,1.08-.28l12.25-.58a2.89,2.89,0,0,0,1-.29l-4.42-8.4a2.45,2.45,0,0,1-1,.27l-12.24.58a3.49,3.49,0,0,0-1.1.28ZM316.21,442.8a1.74,1.74,0,0,0,1.63.07l14.3-7.47a1.64,1.64,0,0,0,.7-.77l-4.42-8.43a1.63,1.63,0,0,1-.71.78l-14.31,7.47a1.69,1.69,0,0,1-1.53,0Z" style="fill:#77D5E1"/><path d="M256.86,439.81a1.46,1.46,0,0,0,1.88.64l13.4-5.94a1.9,1.9,0,0,1,.73-.15l-4.43-8.44a1.83,1.83,0,0,0-.74.17l-13.39,6a1.48,1.48,0,0,1-1.78-.5Zm-1.11-27.55h0a1,1,0,0,0,.73.45l6.13.87a2.77,2.77,0,0,0,.25-1,21.52,21.52,0,0,1,.71-5,1,1,0,0,1,.05-.24,1.48,1.48,0,0,0,0-.59c0-.06,0-.12,0-.18a1.26,1.26,0,0,0-.18-.32,1.16,1.16,0,0,0-.5-.35.71.71,0,0,0-.27-.07L252,404.27a1,1,0,0,1-.25-.06.56.56,0,0,1-.29-.17.5.5,0,0,1-.18-.23h0Zm19.33,37a.87.87,0,0,0,.79.4l12.66.54a2.9,2.9,0,0,0,1.64-.53l-4.42-8.42a2.88,2.88,0,0,1-1.64.53l-12.67-.53a1,1,0,0,1-.77-.36Zm64.36-31.65a3.52,3.52,0,0,1,1.08-.28l12.25-.58a2.89,2.89,0,0,0,1-.29l-4.42-8.4a2.45,2.45,0,0,1-1,.27l-12.24.58a3.49,3.49,0,0,0-1.1.28ZM316.21,442.8a1.74,1.74,0,0,0,1.63.07l14.3-7.47a1.64,1.64,0,0,0,.7-.77l-4.42-8.43a1.63,1.63,0,0,1-.71.78l-14.31,7.47a1.69,1.69,0,0,1-1.53,0Z" style="fill:#fff;opacity:0.7000000000000001"/><path d="M258.21,392.22l-6.79,10.7a.82.82,0,0,0,.62,1.35l10.61,1.52a1.16,1.16,0,0,1,1,1.51,22.2,22.2,0,0,0-.76,5.26,2.67,2.67,0,0,1-1.14,2.07l-12.53,7.6a1.47,1.47,0,0,0-.54,1.92l3.78,7.23a1.48,1.48,0,0,0,1.89.66l13.39-6a2.7,2.7,0,0,1,2.36.24,21.44,21.44,0,0,0,4.74,2.38,1.16,1.16,0,0,1,.69,1.66l-4.81,9.57a.82.82,0,0,0,.75,1.29l12.66.53a3,3,0,0,0,2.2-1l7.48-9.72A4,4,0,0,1,296,429.7a68.31,68.31,0,0,0,8.61-2.18,2.08,2.08,0,0,1,2.15.64l4.63,5.85a1.72,1.72,0,0,0,2.06.44l14.3-7.48a1.71,1.71,0,0,0,.82-1.94l-2.16-7.14a2.1,2.1,0,0,1,.7-2.13,65.19,65.19,0,0,0,6.7-5.82,4.09,4.09,0,0,1,2.33-1.05l12.24-.58a2.94,2.94,0,0,0,2.1-1.22l6.8-10.7a.82.82,0,0,0-.63-1.35L346,393.52a1.16,1.16,0,0,1-1-1.51,22.12,22.12,0,0,0,.76-5.25,2.68,2.68,0,0,1,1.14-2.08l12.53-7.6a1.47,1.47,0,0,0,.54-1.92l-3.78-7.23a1.49,1.49,0,0,0-1.89-.66l-13.39,6a2.73,2.73,0,0,1-2.36-.25,21.44,21.44,0,0,0-4.74-2.38,1.16,1.16,0,0,1-.69-1.66l4.81-9.57a.81.81,0,0,0-.75-1.28l-12.66-.54a3,3,0,0,0-2.21,1l-7.47,9.72a4.12,4.12,0,0,1-2.18,1.32,65,65,0,0,0-8.61,2.18,2.12,2.12,0,0,1-2.15-.64l-4.63-5.86a1.72,1.72,0,0,0-2.06-.44L281,372.34a1.71,1.71,0,0,0-.82,1.94l2.16,7.14a2.1,2.1,0,0,1-.7,2.13,66.43,66.43,0,0,0-6.7,5.82,4.09,4.09,0,0,1-2.33,1.05l-12.24.58A3,3,0,0,0,258.21,392.22Zm57.59-10.64c11.82.5,16.26,9,9.92,19s-21.05,17.67-32.86,17.17-16.26-9-9.92-19S304,381.08,315.8,381.58Z" style="fill:#77D5E1"/><path d="M258.21,392.22l-6.79,10.7a.82.82,0,0,0,.62,1.35l10.61,1.52a1.16,1.16,0,0,1,1,1.51,22.2,22.2,0,0,0-.76,5.26,2.67,2.67,0,0,1-1.14,2.07l-12.53,7.6a1.47,1.47,0,0,0-.54,1.92l3.78,7.23a1.48,1.48,0,0,0,1.89.66l13.39-6a2.7,2.7,0,0,1,2.36.24,21.44,21.44,0,0,0,4.74,2.38,1.16,1.16,0,0,1,.69,1.66l-4.81,9.57a.82.82,0,0,0,.75,1.29l12.66.53a3,3,0,0,0,2.2-1l7.48-9.72A4,4,0,0,1,296,429.7a68.31,68.31,0,0,0,8.61-2.18,2.08,2.08,0,0,1,2.15.64l4.63,5.85a1.72,1.72,0,0,0,2.06.44l14.3-7.48a1.71,1.71,0,0,0,.82-1.94l-2.16-7.14a2.1,2.1,0,0,1,.7-2.13,65.19,65.19,0,0,0,6.7-5.82,4.09,4.09,0,0,1,2.33-1.05l12.24-.58a2.94,2.94,0,0,0,2.1-1.22l6.8-10.7a.82.82,0,0,0-.63-1.35L346,393.52a1.16,1.16,0,0,1-1-1.51,22.12,22.12,0,0,0,.76-5.25,2.68,2.68,0,0,1,1.14-2.08l12.53-7.6a1.47,1.47,0,0,0,.54-1.92l-3.78-7.23a1.49,1.49,0,0,0-1.89-.66l-13.39,6a2.73,2.73,0,0,1-2.36-.25,21.44,21.44,0,0,0-4.74-2.38,1.16,1.16,0,0,1-.69-1.66l4.81-9.57a.81.81,0,0,0-.75-1.28l-12.66-.54a3,3,0,0,0-2.21,1l-7.47,9.72a4.12,4.12,0,0,1-2.18,1.32,65,65,0,0,0-8.61,2.18,2.12,2.12,0,0,1-2.15-.64l-4.63-5.86a1.72,1.72,0,0,0-2.06-.44L281,372.34a1.71,1.71,0,0,0-.82,1.94l2.16,7.14a2.1,2.1,0,0,1-.7,2.13,66.43,66.43,0,0,0-6.7,5.82,4.09,4.09,0,0,1-2.33,1.05l-12.24.58A3,3,0,0,0,258.21,392.22Zm57.59-10.64c11.82.5,16.26,9,9.92,19s-21.05,17.67-32.86,17.17-16.26-9-9.92-19S304,381.08,315.8,381.58Z" style="fill:#fff;opacity:0.55"/><g style="opacity:0.55"><path d="M253.43,431.14a.55.55,0,0,1-.18-.19l-3.78-7.23a.56.56,0,0,1,.2-.7l12.53-7.59a3.57,3.57,0,0,0,1.59-2.86,21,21,0,0,1,.73-5,2.11,2.11,0,0,0-.87-2.36,2.32,2.32,0,0,0-.87-.31l-10.53-1.51L259,392.72a2.06,2.06,0,0,1,1.36-.79l12.25-.58a5,5,0,0,0,2.94-1.32,64.38,64.38,0,0,1,6.61-5.74,3,3,0,0,0,1-3.14L281,374a.8.8,0,0,1,.36-.85l14.3-7.47a.78.78,0,0,1,.75.06.49.49,0,0,1,.15.13l4.63,5.85a2.54,2.54,0,0,0,.67.59,3,3,0,0,0,2.5.36,64.69,64.69,0,0,1,8.48-2.15,5,5,0,0,0,2.76-1.66l7.47-9.72a2.06,2.06,0,0,1,1.43-.67l12.59.53-4.78,9.51a2.08,2.08,0,0,0,.74,2.73,2.15,2.15,0,0,0,.46.22,21.22,21.22,0,0,1,4.14,2l.41.26.06,0a3.65,3.65,0,0,0,3.19.29l13.39-6a.55.55,0,0,1,.51.05.65.65,0,0,1,.18.19l3.78,7.23a.55.55,0,0,1-.2.7l-12.53,7.59a3.57,3.57,0,0,0-1.59,2.86,21,21,0,0,1-.73,5,2.09,2.09,0,0,0,.87,2.36,2.16,2.16,0,0,0,.87.31L356.41,396l-6.75,10.64a2.06,2.06,0,0,1-1.36.79l-12.25.58a5.08,5.08,0,0,0-2.94,1.32A64.38,64.38,0,0,1,326.5,415a3,3,0,0,0-1,3.14l2.16,7.14a.8.8,0,0,1-.36.85L313,433.62a.78.78,0,0,1-.75-.06.38.38,0,0,1-.15-.13l-4.63-5.85a2.54,2.54,0,0,0-.67-.59,3,3,0,0,0-2.5-.36,64.69,64.69,0,0,1-8.48,2.15,5,5,0,0,0-2.76,1.66l-7.47,9.72a2.06,2.06,0,0,1-1.43.67l-12.59-.53,4.78-9.51a2.08,2.08,0,0,0-.75-2.73,2.35,2.35,0,0,0-.45-.22,21.78,21.78,0,0,1-4.14-2l-.41-.27-.06,0a3.61,3.61,0,0,0-3.19-.28l-13.39,5.95a.55.55,0,0,1-.51-.05h0m71.22-48a17.59,17.59,0,0,0-8.81-2.45c-12.09-.51-27.2,7.39-33.69,17.61-2.28,3.6-3.31,7.18-3,10.37a10.05,10.05,0,0,0,4.82,7.59,17.69,17.69,0,0,0,8.81,2.44c12.09.51,27.2-7.39,33.69-17.61,4.61-7.26,3.88-14.31-1.86-17.95m-71.72,48.83a1.52,1.52,0,0,0,1.39.11l13.39-6a2.69,2.69,0,0,1,2.31.22l.05,0,.42.28a22.21,22.21,0,0,0,4.32,2.1,1.47,1.47,0,0,1,.28.14,1.14,1.14,0,0,1,.41,1.52l-4.81,9.57a.82.82,0,0,0,.2,1.13,1.12,1.12,0,0,0,.55.16l12.66.53a3,3,0,0,0,2.2-1l7.48-9.72A4,4,0,0,1,296,429.7a68.31,68.31,0,0,0,8.61-2.18,2.08,2.08,0,0,1,1.71.25,1.84,1.84,0,0,1,.44.39l4.63,5.85a1.38,1.38,0,0,0,.38.34,1.73,1.73,0,0,0,1.68.1l14.3-7.48a1.71,1.71,0,0,0,.82-1.94l-2.16-7.14a2.1,2.1,0,0,1,.7-2.13,65.19,65.19,0,0,0,6.7-5.82,4.09,4.09,0,0,1,2.33-1.05l12.24-.58a2.94,2.94,0,0,0,2.1-1.22l6.8-10.7a.81.81,0,0,0-.16-1.19,1.09,1.09,0,0,0-.47-.16L346,393.52a1.29,1.29,0,0,1-.5-.18A1.17,1.17,0,0,1,345,392a22.12,22.12,0,0,0,.76-5.25,2.68,2.68,0,0,1,1.14-2.08l12.53-7.6a1.47,1.47,0,0,0,.54-1.92l-3.78-7.23a1.45,1.45,0,0,0-.5-.54,1.49,1.49,0,0,0-1.39-.12l-13.39,6a2.72,2.72,0,0,1-2.32-.23l0,0c-.13-.1-.28-.19-.42-.28a22.21,22.21,0,0,0-4.32-2.1l-.28-.13a1.16,1.16,0,0,1-.41-1.53l4.81-9.57a.82.82,0,0,0-.2-1.13,1,1,0,0,0-.55-.15l-12.66-.54a3,3,0,0,0-2.21,1l-7.47,9.72a4.12,4.12,0,0,1-2.18,1.32,65,65,0,0,0-8.61,2.18,2.15,2.15,0,0,1-1.72-.26,2.25,2.25,0,0,1-.43-.38l-4.63-5.86a1.38,1.38,0,0,0-.38-.34,1.73,1.73,0,0,0-1.68-.1L281,372.34a1.71,1.71,0,0,0-.82,1.94l2.16,7.14a2.1,2.1,0,0,1-.7,2.13,66.43,66.43,0,0,0-6.7,5.82,4.09,4.09,0,0,1-2.33,1.05l-12.24.58a3,3,0,0,0-2.11,1.22l-6.79,10.7a.81.81,0,0,0,.16,1.19,1.09,1.09,0,0,0,.46.16l10.61,1.52a1.29,1.29,0,0,1,.5.18,1.17,1.17,0,0,1,.47,1.33,22.2,22.2,0,0,0-.76,5.26,2.67,2.67,0,0,1-1.14,2.07l-12.53,7.6a1.47,1.47,0,0,0-.54,1.92l3.78,7.23a1.56,1.56,0,0,0,.5.55Zm71.22-48.05c5.14,3.26,6.07,9.59,1.57,16.68-6.34,10-21.05,17.67-32.86,17.17a16.7,16.7,0,0,1-8.35-2.3c-5.14-3.26-6.07-9.59-1.57-16.67,6.34-10,21.05-17.68,32.86-17.18a16.91,16.91,0,0,1,8.35,2.3Z" style="fill:#fff"/></g></g><g id="freepik--gear--inject-2"><path d="M166.92,381.58a5.27,5.27,0,0,1-3.15-.52l-6.77-4a3.5,3.5,0,0,0-3-.1l-5.72,2.86a1.2,1.2,0,0,0-.68.79h0l-1.79,7.7h0a1.07,1.07,0,0,0,.45,1.11l2.28,1.9-6.9-.41a1.42,1.42,0,0,0-1.53,1.15l0,0-1.8,7.7h0a1.87,1.87,0,0,0,0,.48l.33,4.45a2.35,2.35,0,0,0,1.81,2l8.65,1.66a4.06,4.06,0,0,1,1.91,1.12l-.54.36a1.34,1.34,0,0,0-.57.75h0L148,418.32h0a1.14,1.14,0,0,0,.54,1.19l6.8,4.75a3.63,3.63,0,0,0,3,.39l5.83-2.17a4.92,4.92,0,0,1,3.17.1c1.53.65,3.11,1.23,4.71,1.74a3.34,3.34,0,0,1,2.06,2.15l1,4.07a2.69,2.69,0,0,0,2.11,1.88l9.6,1.21a1.67,1.67,0,0,0,1.84-1.26h0l1.22-5.23a2.09,2.09,0,0,1,1.12-.45,38.85,38.85,0,0,0,4.25-.53,5.36,5.36,0,0,1,3.15.53l6.76,4a3.49,3.49,0,0,0,3,.1l5.71-2.86a1.18,1.18,0,0,0,.67-.75h0l1.81-7.75h0a1.13,1.13,0,0,0-.46-1.1l-2.28-1.9,6.91.42a1.45,1.45,0,0,0,1.52-1.07h0L224,408h0a1.46,1.46,0,0,0,.06-.52l-.33-4.45a2.37,2.37,0,0,0-1.8-2l-8.66-1.66a4,4,0,0,1-1.91-1.12l.54-.36a1.24,1.24,0,0,0,.57-.76h0l1.78-7.66h0l0-.09h0a1.12,1.12,0,0,0-.55-1.14l-6.8-4.76a3.66,3.66,0,0,0-3-.38L198,385.27a4.86,4.86,0,0,1-3.17-.11c-1.53-.65-3.11-1.23-4.71-1.73a3.41,3.41,0,0,1-2.06-2.15l-1-4.08a2.68,2.68,0,0,0-2.12-1.87l-9.6-1.22a1.69,1.69,0,0,0-1.89,1.49l-.4,3.66a2.1,2.1,0,0,1-1.9,1.79A38.36,38.36,0,0,0,166.92,381.58Zm28.45,27.76c-6.74,3.38-18.18,1.93-25.55-3.22A14.26,14.26,0,0,1,164.5,400a11.16,11.16,0,0,1,2.38-1.57c6.73-3.38,18.17-1.93,25.54,3.22a14.35,14.35,0,0,1,5.32,6.14A10.89,10.89,0,0,1,195.37,409.34Z" style="fill:#77D5E1"/><path d="M166.92,381.58a5.27,5.27,0,0,1-3.15-.52l-6.77-4a3.5,3.5,0,0,0-3-.1l-5.72,2.86a1.2,1.2,0,0,0-.68.79h0l-1.79,7.7h0a1.07,1.07,0,0,0,.45,1.11l2.28,1.9-6.9-.41a1.42,1.42,0,0,0-1.53,1.15l0,0-1.8,7.7h0a1.87,1.87,0,0,0,0,.48l.33,4.45a2.35,2.35,0,0,0,1.81,2l8.65,1.66a4.06,4.06,0,0,1,1.91,1.12l-.54.36a1.34,1.34,0,0,0-.57.75h0L148,418.32h0a1.14,1.14,0,0,0,.54,1.19l6.8,4.75a3.63,3.63,0,0,0,3,.39l5.83-2.17a4.92,4.92,0,0,1,3.17.1c1.53.65,3.11,1.23,4.71,1.74a3.34,3.34,0,0,1,2.06,2.15l1,4.07a2.69,2.69,0,0,0,2.11,1.88l9.6,1.21a1.67,1.67,0,0,0,1.84-1.26h0l1.22-5.23a2.09,2.09,0,0,1,1.12-.45,38.85,38.85,0,0,0,4.25-.53,5.36,5.36,0,0,1,3.15.53l6.76,4a3.49,3.49,0,0,0,3,.1l5.71-2.86a1.18,1.18,0,0,0,.67-.75h0l1.81-7.75h0a1.13,1.13,0,0,0-.46-1.1l-2.28-1.9,6.91.42a1.45,1.45,0,0,0,1.52-1.07h0L224,408h0a1.46,1.46,0,0,0,.06-.52l-.33-4.45a2.37,2.37,0,0,0-1.8-2l-8.66-1.66a4,4,0,0,1-1.91-1.12l.54-.36a1.24,1.24,0,0,0,.57-.76h0l1.78-7.66h0l0-.09h0a1.12,1.12,0,0,0-.55-1.14l-6.8-4.76a3.66,3.66,0,0,0-3-.38L198,385.27a4.86,4.86,0,0,1-3.17-.11c-1.53-.65-3.11-1.23-4.71-1.73a3.41,3.41,0,0,1-2.06-2.15l-1-4.08a2.68,2.68,0,0,0-2.12-1.87l-9.6-1.22a1.69,1.69,0,0,0-1.89,1.49l-.4,3.66a2.1,2.1,0,0,1-1.9,1.79A38.36,38.36,0,0,0,166.92,381.58Zm28.45,27.76c-6.74,3.38-18.18,1.93-25.55-3.22A14.26,14.26,0,0,1,164.5,400a11.16,11.16,0,0,1,2.38-1.57c6.73-3.38,18.17-1.93,25.54,3.22a14.35,14.35,0,0,1,5.32,6.14A10.89,10.89,0,0,1,195.37,409.34Z" style="fill:#fff;opacity:0.2"/><path d="M210.51,411.52a1.66,1.66,0,0,0,.16,2.37l3,2.53,6.91.42a1.45,1.45,0,0,0,1.52-1.07l1.78-7.64a1.44,1.44,0,0,1-1.5,1l-8.48-.52a2.93,2.93,0,0,0-2.44,1.44A10.83,10.83,0,0,1,210.51,411.52Zm3.69-22.1a1.23,1.23,0,0,1-.56.75L209.38,393a1.5,1.5,0,0,0-.3,2.25,18,18,0,0,1,1.63,2.31,3.62,3.62,0,0,0,.58.71l.55-.37a1.32,1.32,0,0,0,.56-.76h0Z" style="opacity:0.1"/><path d="M194.22,393.9c6.36,4.45,7.62,10.2,3.51,13.85a14.3,14.3,0,0,0-5.31-6.13c-7.37-5.16-18.8-6.61-25.55-3.23a10.63,10.63,0,0,0-2.36,1.57c-1.45-3.61-.09-7.16,4.16-9.29C175.42,387.29,186.85,388.74,194.22,393.9Z" style="opacity:0.1"/><path d="M173.57,425.38a2.92,2.92,0,0,1,.59,1.07l1,4.08a2.62,2.62,0,0,0,1.11,1.48l1.8-7.72a2.7,2.7,0,0,1-1.11-1.48l-1-4.08a2.9,2.9,0,0,0-.57-1.08ZM148,418.32a1.09,1.09,0,0,0,.54,1.17l6.8,4.77a3.62,3.62,0,0,0,2,.53l1.8-7.72a3.48,3.48,0,0,1-1.95-.54l-6.79-4.75a1.13,1.13,0,0,1-.54-1.19h0Zm50.52,8.4,6.68,3.95a3.35,3.35,0,0,0,1.83.37l1.79-7.7A3.39,3.39,0,0,1,207,423L200.37,419Zm-60.27-27a1.13,1.13,0,0,0,0,.49l.32,4.44a2.36,2.36,0,0,0,1.81,2l8.65,1.66a3.55,3.55,0,0,1,1.27.59l1.8-7.73a3.52,3.52,0,0,0-1.27-.58L142.19,399a2.34,2.34,0,0,1-1.81-2l-.32-4.45a2.43,2.43,0,0,1,0-.47Zm7.5-11.44h0a1.13,1.13,0,0,0,.45,1.12l2.29,1.89,1.56.11a2.89,2.89,0,0,0,2.45-1.46,10.52,10.52,0,0,1,1-1.47,3.85,3.85,0,0,0,.23-.38l.11-.3a1.66,1.66,0,0,0,.05-.62,1.46,1.46,0,0,0-.26-.72,1,1,0,0,0-.3-.35l-5.31-4.43a2,2,0,0,1-.32-.35,1,1,0,0,1-.17-.46,1.31,1.31,0,0,1,0-.28Z" style="fill:#77D5E1"/><path d="M173.57,425.38a2.92,2.92,0,0,1,.59,1.07l1,4.08a2.62,2.62,0,0,0,1.11,1.48l1.8-7.72a2.7,2.7,0,0,1-1.11-1.48l-1-4.08a2.9,2.9,0,0,0-.57-1.08ZM148,418.32a1.09,1.09,0,0,0,.54,1.17l6.8,4.77a3.62,3.62,0,0,0,2,.53l1.8-7.72a3.48,3.48,0,0,1-1.95-.54l-6.79-4.75a1.13,1.13,0,0,1-.54-1.19h0Zm50.52,8.4,6.68,3.95a3.35,3.35,0,0,0,1.83.37l1.79-7.7A3.39,3.39,0,0,1,207,423L200.37,419Zm-60.27-27a1.13,1.13,0,0,0,0,.49l.32,4.44a2.36,2.36,0,0,0,1.81,2l8.65,1.66a3.55,3.55,0,0,1,1.27.59l1.8-7.73a3.52,3.52,0,0,0-1.27-.58L142.19,399a2.34,2.34,0,0,1-1.81-2l-.32-4.45a2.43,2.43,0,0,1,0-.47Zm7.5-11.44h0a1.13,1.13,0,0,0,.45,1.12l2.29,1.89,1.56.11a2.89,2.89,0,0,0,2.45-1.46,10.52,10.52,0,0,1,1-1.47,3.85,3.85,0,0,0,.23-.38l.11-.3a1.66,1.66,0,0,0,.05-.62,1.46,1.46,0,0,0-.26-.72,1,1,0,0,0-.3-.35l-5.31-4.43a2,2,0,0,1-.32-.35,1,1,0,0,1-.17-.46,1.31,1.31,0,0,1,0-.28Z" style="fill:#fff;opacity:0.7000000000000001"/><path d="M154,377l-5.72,2.86a1,1,0,0,0-.22,1.87l5.31,4.43a1.67,1.67,0,0,1,.17,2.37,12.61,12.61,0,0,0-1,1.47,2.85,2.85,0,0,1-2.44,1.45l-8.47-.51a1.46,1.46,0,0,0-1.59,1.6l.33,4.45a2.36,2.36,0,0,0,1.81,2l8.65,1.66a4.31,4.31,0,0,1,2.5,1.83,23.16,23.16,0,0,0,1.62,2.31,1.47,1.47,0,0,1-.3,2.24l-4.25,2.82a1.09,1.09,0,0,0,0,1.93l6.8,4.76a3.64,3.64,0,0,0,3,.39l5.83-2.17a4.92,4.92,0,0,1,3.17.1,50.06,50.06,0,0,0,4.72,1.73,3.39,3.39,0,0,1,2.05,2.16l1,4.07a2.7,2.7,0,0,0,2.11,1.88l9.61,1.21a1.67,1.67,0,0,0,1.88-1.49l.41-3.66a2.09,2.09,0,0,1,1.89-1.79,38.24,38.24,0,0,0,4.25-.53,5.27,5.27,0,0,1,3.15.53l6.76,4a3.49,3.49,0,0,0,3,.1l5.72-2.86a1,1,0,0,0,.21-1.87l-5.31-4.42a1.7,1.7,0,0,1-.17-2.38,11.56,11.56,0,0,0,1-1.47,2.87,2.87,0,0,1,2.43-1.45l8.48.51a1.45,1.45,0,0,0,1.58-1.6l-.33-4.45a2.37,2.37,0,0,0-1.8-2l-8.66-1.66a4.29,4.29,0,0,1-2.49-1.83,21.75,21.75,0,0,0-1.63-2.31,1.48,1.48,0,0,1,.31-2.24l4.25-2.82a1.09,1.09,0,0,0,0-1.93l-6.8-4.76a3.66,3.66,0,0,0-3-.38L198,385.27a4.92,4.92,0,0,1-3.17-.11c-1.53-.65-3.11-1.23-4.71-1.73a3.41,3.41,0,0,1-2.06-2.15l-1-4.08a2.68,2.68,0,0,0-2.12-1.87l-9.6-1.22a1.69,1.69,0,0,0-1.89,1.49l-.4,3.66a2.1,2.1,0,0,1-1.9,1.79,38.36,38.36,0,0,0-4.24.53,5.27,5.27,0,0,1-3.15-.52l-6.77-4A3.5,3.5,0,0,0,154,377Zm40.22,16.93c7.37,5.16,7.88,12.08,1.15,15.45s-18.18,1.93-25.55-3.22-7.88-12.08-1.14-15.45S186.85,388.74,194.22,393.89Z" style="fill:#77D5E1"/><path d="M154,377l-5.72,2.86a1,1,0,0,0-.22,1.87l5.31,4.43a1.67,1.67,0,0,1,.17,2.37,12.61,12.61,0,0,0-1,1.47,2.85,2.85,0,0,1-2.44,1.45l-8.47-.51a1.46,1.46,0,0,0-1.59,1.6l.33,4.45a2.36,2.36,0,0,0,1.81,2l8.65,1.66a4.31,4.31,0,0,1,2.5,1.83,23.16,23.16,0,0,0,1.62,2.31,1.47,1.47,0,0,1-.3,2.24l-4.25,2.82a1.09,1.09,0,0,0,0,1.93l6.8,4.76a3.64,3.64,0,0,0,3,.39l5.83-2.17a4.92,4.92,0,0,1,3.17.1,50.06,50.06,0,0,0,4.72,1.73,3.39,3.39,0,0,1,2.05,2.16l1,4.07a2.7,2.7,0,0,0,2.11,1.88l9.61,1.21a1.67,1.67,0,0,0,1.88-1.49l.41-3.66a2.09,2.09,0,0,1,1.89-1.79,38.24,38.24,0,0,0,4.25-.53,5.27,5.27,0,0,1,3.15.53l6.76,4a3.49,3.49,0,0,0,3,.1l5.72-2.86a1,1,0,0,0,.21-1.87l-5.31-4.42a1.7,1.7,0,0,1-.17-2.38,11.56,11.56,0,0,0,1-1.47,2.87,2.87,0,0,1,2.43-1.45l8.48.51a1.45,1.45,0,0,0,1.58-1.6l-.33-4.45a2.37,2.37,0,0,0-1.8-2l-8.66-1.66a4.29,4.29,0,0,1-2.49-1.83,21.75,21.75,0,0,0-1.63-2.31,1.48,1.48,0,0,1,.31-2.24l4.25-2.82a1.09,1.09,0,0,0,0-1.93l-6.8-4.76a3.66,3.66,0,0,0-3-.38L198,385.27a4.92,4.92,0,0,1-3.17-.11c-1.53-.65-3.11-1.23-4.71-1.73a3.41,3.41,0,0,1-2.06-2.15l-1-4.08a2.68,2.68,0,0,0-2.12-1.87l-9.6-1.22a1.69,1.69,0,0,0-1.89,1.49l-.4,3.66a2.1,2.1,0,0,1-1.9,1.79,38.36,38.36,0,0,0-4.24.53,5.27,5.27,0,0,1-3.15-.52l-6.77-4A3.5,3.5,0,0,0,154,377Zm40.22,16.93c7.37,5.16,7.88,12.08,1.15,15.45s-18.18,1.93-25.55-3.22-7.88-12.08-1.14-15.45S186.85,388.74,194.22,393.89Z" style="fill:#fff;opacity:0.55"/><g style="opacity:0.55"><path d="M141.46,397.07h0a.71.71,0,0,1,0-.2l-.33-4.44a.51.51,0,0,1,.11-.38.5.5,0,0,1,.37-.11l8.48.51a3.92,3.92,0,0,0,3.41-2,9.9,9.9,0,0,1,.9-1.35,2.8,2.8,0,0,0,.52-2.55,2.63,2.63,0,0,0-.84-1.26l-5.31-4.43-.08-.08.09-.05,5.72-2.87a2.51,2.51,0,0,1,2,.07l6.77,4a6.29,6.29,0,0,0,3.86.65,38.08,38.08,0,0,1,4.14-.51,3.14,3.14,0,0,0,2.85-2.71l.41-3.67a.61.61,0,0,1,.24-.43.63.63,0,0,1,.48-.14l9.6,1.22a1.7,1.7,0,0,1,1.24,1.09h0l1,4.08a.83.83,0,0,1,0,.15,4.45,4.45,0,0,0,2.72,2.74c1.58.5,3.13,1.07,4.62,1.7a5.93,5.93,0,0,0,3.94.12l5.82-2.17a2.67,2.67,0,0,1,2,.26l6.8,4.76c.08.05.11.09.13.1l-.13.11-4.25,2.83a2.47,2.47,0,0,0-1,2.82,2.94,2.94,0,0,0,.5.94,20.41,20.41,0,0,1,1.55,2.19,5.22,5.22,0,0,0,3.19,2.31l8.65,1.66a1.38,1.38,0,0,1,.93.89,1.77,1.77,0,0,1,0,.2l.33,4.45a.46.46,0,0,1-.12.37.47.47,0,0,1-.37.12l-8.48-.51a3.9,3.9,0,0,0-3.4,2,10,10,0,0,1-.91,1.35,2.82,2.82,0,0,0-.51,2.55,2.5,2.5,0,0,0,.84,1.26l5.31,4.43.08.08-.1.06-5.72,2.86a2.47,2.47,0,0,1-2-.07l-6.76-4a6.31,6.31,0,0,0-3.87-.65,37.58,37.58,0,0,1-4.13.51,3.16,3.16,0,0,0-2.86,2.72l-.4,3.66a.65.65,0,0,1-.24.44.69.69,0,0,1-.48.13l-9.61-1.22a1.68,1.68,0,0,1-1.23-1.09h0l-1-4.08a.83.83,0,0,0,0-.15,4.44,4.44,0,0,0-2.71-2.74c-1.58-.5-3.14-1.07-4.62-1.7a6,6,0,0,0-3.94-.12l-5.83,2.17a2.67,2.67,0,0,1-2.05-.26l-6.8-4.76-.12-.1a.56.56,0,0,1,.13-.11l4.25-2.82a2.49,2.49,0,0,0,1-2.83,2.76,2.76,0,0,0-.5-.94,18.15,18.15,0,0,1-1.54-2.19,5.28,5.28,0,0,0-3.19-2.31L142.39,398a1.34,1.34,0,0,1-.93-.89m59.32,3.33c-.8-2.65-2.86-5.19-6-7.36-7.64-5.34-19.57-6.83-26.61-3.3-4.31,2.16-6.16,5.85-4.94,9.87.8,2.65,2.86,5.19,6,7.36,7.64,5.34,19.57,6.83,26.6,3.3,4.32-2.16,6.17-5.85,4.95-9.87m-60.32-3a2.38,2.38,0,0,0,1.73,1.61l8.65,1.66a4.31,4.31,0,0,1,2.5,1.83,23.16,23.16,0,0,0,1.62,2.31,1.85,1.85,0,0,1,.32.58,1.46,1.46,0,0,1-.62,1.66l-4.25,2.82a1.12,1.12,0,0,0-.56,1.25,1.33,1.33,0,0,0,.54.68l6.8,4.76a3.64,3.64,0,0,0,3,.39l5.83-2.17a4.92,4.92,0,0,1,3.17.1,50.06,50.06,0,0,0,4.72,1.73,3.42,3.42,0,0,1,2,2.06.3.3,0,0,1,0,.1l1,4.07,0,.09a2.71,2.71,0,0,0,2.08,1.79l9.61,1.21a1.67,1.67,0,0,0,1.88-1.49l.41-3.66a2.09,2.09,0,0,1,1.89-1.79,38.24,38.24,0,0,0,4.25-.53,5.27,5.27,0,0,1,3.15.53l6.76,4a3.49,3.49,0,0,0,3,.1l5.72-2.86a1.05,1.05,0,0,0,.66-1.24,1.35,1.35,0,0,0-.45-.63l-5.31-4.42a1.68,1.68,0,0,1-.51-.77,1.79,1.79,0,0,1,.34-1.61,11.56,11.56,0,0,0,1-1.47,2.87,2.87,0,0,1,2.43-1.45l8.48.51a1.45,1.45,0,0,0,1.58-1.6l-.33-4.45a2,2,0,0,0-.07-.42,2.38,2.38,0,0,0-1.73-1.61l-8.66-1.66a4.29,4.29,0,0,1-2.49-1.83,21.75,21.75,0,0,0-1.63-2.31,1.82,1.82,0,0,1-.31-.58,1.44,1.44,0,0,1,.62-1.66l4.25-2.82a1.1,1.1,0,0,0,.55-1.25,1.26,1.26,0,0,0-.53-.68l-6.8-4.76a3.66,3.66,0,0,0-3-.38L198,385.27a4.86,4.86,0,0,1-3.17-.11c-1.53-.65-3.11-1.23-4.71-1.73a3.42,3.42,0,0,1-2-2.06l0-.09-1-4.08,0-.09a2.7,2.7,0,0,0-2.09-1.78l-9.6-1.22a1.69,1.69,0,0,0-1.89,1.49l-.4,3.66a2.09,2.09,0,0,1-1.9,1.79,38.36,38.36,0,0,0-4.24.53,5.27,5.27,0,0,1-3.15-.52l-6.77-4a3.5,3.5,0,0,0-3-.1l-5.72,2.87a1,1,0,0,0-.66,1.23,1.33,1.33,0,0,0,.44.63l5.31,4.43a1.56,1.56,0,0,1,.52.76,1.82,1.82,0,0,1-.35,1.61,12.61,12.61,0,0,0-1,1.47,2.85,2.85,0,0,1-2.44,1.45l-8.47-.51a1.46,1.46,0,0,0-1.59,1.6l.33,4.45a2.07,2.07,0,0,0,.08.42Zm59.32,3.33c1,3.39-.41,6.64-4.41,8.64-6.74,3.38-18.18,1.93-25.55-3.22-3-2.1-4.85-4.49-5.56-6.81-1-3.39.42-6.64,4.42-8.64,6.74-3.38,18.17-1.93,25.54,3.22,3,2.1,4.86,4.49,5.56,6.81Z" style="fill:#fff"/></g></g></g></svg>