<svg xmlns="http://www.w3.org/2000/svg" viewBox="27.8 207.45 384.35 256.7"><g id="freepik--Arrows--inject-18"><g id="freepik--Arrow--inject-18"><polygon points="395.75 271.31 411.64 280.54 412.15 335.19 399.76 328.01 357.45 417.79 332.95 431.94 317.06 422.71 373.16 303.74 360.57 291.63 395.75 271.31" style="fill:#455a64"/><polygon points="411.64 280.54 376.46 300.85 389.05 312.97 332.95 431.94 357.45 417.79 401.3 324.75 412.15 335.19 411.64 280.54" style="fill:#37474f"/><polygon points="389.05 312.97 376.46 300.85 360.57 291.63 373.16 303.74 389.05 312.97" style="fill:#263238"/><polygon points="399.76 328.01 401.3 324.75 412.15 335.19 399.76 328.01" style="fill:#263238"/></g><g id="freepik--arrow--inject-18"><polygon points="152.34 272.08 174.28 284.82 174.99 360.3 157.88 350.39 142.13 383.75 108.29 403.28 86.35 390.54 121.15 316.87 103.76 300.13 152.34 272.08" style="fill:#77D5E1"/><polygon points="152.34 272.08 174.28 284.82 174.99 360.3 157.88 350.39 142.13 383.75 108.29 403.28 86.35 390.54 121.15 316.87 103.76 300.13 152.34 272.08" style="fill:#fff;opacity:0.8"/><polygon points="174.28 284.82 125.7 312.88 143.09 329.61 108.29 403.28 142.13 383.75 160.01 345.89 174.99 360.3 174.28 284.82" style="fill:#77D5E1"/><polygon points="174.28 284.82 125.7 312.88 143.09 329.61 108.29 403.28 142.13 383.75 160.01 345.89 174.99 360.3 174.28 284.82" style="fill:#fff;opacity:0.6000000000000001"/><polygon points="143.09 329.61 125.7 312.88 103.76 300.13 121.15 316.87 143.09 329.61" style="fill:#77D5E1;opacity:0.6000000000000001"/><polygon points="157.88 350.39 160.01 345.89 174.99 360.3 157.88 350.39" style="fill:#77D5E1;opacity:0.6000000000000001"/></g><g id="freepik--arrow--inject-18"><polygon points="262.59 207.45 347.57 256.7 348.8 389.22 318.77 371.81 291.36 429.86 231.95 464.15 146.97 414.9 207.82 286.08 177.28 256.7 262.59 207.45" style="fill:#77D5E1"/><polygon points="347.57 256.7 262.26 305.95 292.8 335.33 231.95 464.15 291.36 429.86 322.5 363.91 348.8 389.22 347.57 256.7" style="fill:#77D5E1"/><polygon points="262.26 305.95 177.28 256.7 262.59 207.45 347.57 256.7 262.26 305.95" style="fill:#fff;opacity:0.30000000000000004"/><polygon points="207.82 286.08 292.8 335.33 231.95 464.15 146.97 414.9 207.82 286.08" style="fill:#fff;opacity:0.2"/><polygon points="292.8 335.33 262.26 305.95 177.28 256.7 207.82 286.08 292.8 335.33" style="opacity:0.2"/><polygon points="318.77 371.81 322.5 363.91 348.8 389.22 318.77 371.81" style="opacity:0.2"/></g></g><g id="freepik--Target--inject-18"><g id="freepik--target--inject-18"><g id="freepik--target--inject-18"><path d="M112.38,343.2c4.34,2.5,7,7.86,7,15.49,0,15.26-10.71,33.82-23.93,41.45-6.63,3.83-12.63,4.17-17,1.64-1.13-.66-5.81-3.24-7-3.9-4.33-2.5-7-7.86-7-15.49,0-15.26,10.71-33.81,23.93-41.44,6.6-3.81,12.58-4.17,16.91-1.68" style="fill:#77D5E1"/><path d="M95.47,400.14h0c-6.63,3.83-12.63,4.17-17,1.64-1.13-.66-5.81-3.24-7-3.9-4.33-2.5-7-7.86-7-15.48Z" style="opacity:0.65"/><path d="M107.92,388.92a44.48,44.48,0,0,1-12.45,11.22L64.54,382.4h0A44.56,44.56,0,0,1,68,366Z" style="opacity:0.55"/><path d="M68,366C72.23,355.63,79.81,346,88.47,341c6.6-3.81,12.58-4.17,16.91-1.68l7,3.93c4.34,2.5,7,7.86,7,15.49,0,10-4.59,21.4-11.48,30.23Z" style="opacity:0.4"/><path d="M112.4,354.76c0,15.26-10.72,33.82-23.93,41.45s-23.93,1.44-23.93-13.82S75.25,348.57,88.47,341,112.4,339.52,112.4,354.76Z" style="fill:#77D5E1"/><path d="M112.4,354.76c0,15.26-10.72,33.82-23.93,41.45s-23.93,1.44-23.93-13.82S75.25,348.57,88.47,341,112.4,339.52,112.4,354.76Z" style="opacity:0.2"/><path d="M106.42,358.22c0,11.44-8,25.36-18,31.08s-18,1.09-18-10.36,8-25.36,18-31.09S106.42,346.77,106.42,358.22Z" style="fill:#fafafa"/><path d="M101,361.36c0,8-5.6,17.67-12.51,21.66S76,383.78,76,375.8s5.6-17.68,12.51-21.66S101,353.38,101,361.36Z" style="fill:#77D5E1"/><path d="M101,361.36c0,8-5.6,17.67-12.51,21.66S76,383.78,76,375.8s5.6-17.68,12.51-21.66S101,353.38,101,361.36Z" style="opacity:0.2"/><path d="M95.39,364.58a15.29,15.29,0,0,1-6.92,12c-3.83,2.21-6.93.42-6.92-4a15.32,15.32,0,0,1,6.92-12C92.29,358.38,95.39,360.17,95.39,364.58Z" style="fill:#fafafa"/><path d="M91.39,366.89A6.47,6.47,0,0,1,88.47,372c-1.61.93-2.92.18-2.92-1.69a6.45,6.45,0,0,1,2.92-5.05C90.08,364.27,91.39,365,91.39,366.89Z" style="fill:#455a64"/></g><g id="freepik--arrow--inject-18"><path d="M41.47,341.71s-6.35,3-9.6,1.16.8-6.24,2.9-5Z" style="fill:#77D5E1"/><path d="M41.47,341.71s-.55-7-3.8-8.89-5,3.81-2.9,5Z" style="fill:#77D5E1"/><path d="M41.47,341.71s-.55-7-3.8-8.89-5,3.81-2.9,5Z" style="fill:#fff;opacity:0.5"/><polygon points="79.22 364.31 29.29 335.49 30.01 334.26 80.76 363.55 79.22 364.31" style="fill:#37474f"/><path d="M32,334.92a2.1,2.1,0,1,1-2.09-2.1A2.1,2.1,0,0,1,32,334.92Z" style="fill:#263238"/><path d="M78.69,363.18c-2.83-.36-4.67,4.3-4.67,4.3l14.16,1.18Z" style="fill:#77D5E1"/><path d="M78.69,363.18c-2.83-.36-4.67,4.3-4.67,4.3l14.16,1.18Z" style="fill:#77D5E1"/><path d="M80.08,357s-3.11,3.92-1.39,6.19l9.49,5.48Z" style="fill:#77D5E1"/><path d="M80.08,357s-3.11,3.92-1.39,6.19l9.49,5.48Z" style="fill:#fff;opacity:0.5"/></g></g></g></svg>